inDegrees=yes
name=ik_MT_01200452_orientations.mot
DataType=double
version=3
OpenSimVersion=4.3-2021-08-27-4bc7ad9
endheader
time	pelvis_tilt	pelvis_list	pelvis_rotation	pelvis_tx	pelvis_ty	pelvis_tz	hip_flexion_r	hip_adduction_r	hip_rotation_r	knee_angle_r	knee_angle_r_beta	ankle_angle_r	subtalar_angle_r	mtp_angle_r	hip_flexion_l	hip_adduction_l	hip_rotation_l	knee_angle_l	knee_angle_l_beta	ankle_angle_l	subtalar_angle_l	mtp_angle_l	lumbar_extension	lumbar_bending	lumbar_rotation	arm_flex_r	arm_add_r	arm_rot_r	elbow_flex_r	pro_sup_r	wrist_flex_r	wrist_dev_r	arm_flex_l	arm_add_l	arm_rot_l	elbow_flex_l	pro_sup_l	wrist_flex_l	wrist_dev_l
0	0.01141798559363018	0.01626879368471809	-113.2964034213267	0	0.9399999999999999	0	0.3602120407475987	-0.00781141141607181	-0.1211872020874138	0.649132480005799	0.01132949905773745	0.3243554883336724	-0.007661635275018731	0	0.359446888162837	0.003256982006533434	-0.09997121079988189	0.6430259119476842	0.01122291933912623	0.3152089925643836	-0.01509530240840223	0	0.02031972572331494	-0.01129509489247713	-0.01422856499246112	0	-1.873814175770782	0	22.45891493982586	21.17789607135805	0	3.114652085455119	0	-1.873814175770782	0	22.45891493982586	21.17789607135805	0	3.114652085455119
0.01	0.00472863981233662	0.01044079369117362	-113.2903972907638	0	0.9399999999999999	0	0.3528159932707446	-0.003595182107509942	-0.1240953302766058	0.6453685495421922	0.0112638060783314	0.3302323974706692	0.01225259061567696	0	0.3565035063385385	-0.02395895383115911	-0.1123420976768909	0.656699960751898	0.01146157651283816	0.3416379938118081	0.02227021482225941	0	0.02981876470789983	-0.02278667331262392	-0.02573717690650434	0	-2.360749316723843	0	27.28575240444947	25.19365063054444	0	3.650159107815686	0	-2.360749316723843	0	27.28575240444947	25.19365063054444	0	3.650159107815686
0.02	0.01273607486876426	0.10809498761796	-113.2685124836131	0	0.9399999999999999	0	0.7655542692157987	0.03805305332872063	-0.2263423845421604	1.183708677186213	0.0206596138013261	0.5282393723497701	-0.04595573006072981	0	0.7758076226979436	-0.05043238933511692	-0.1825574024458802	1.209908904707229	0.02111689403633947	0.5497289391863757	-0.01012193661214343	0	0.1711099091884299	0.004709166227439227	-0.03466036667676161	0	-2.856742378519829	0	31.76569434100752	28.71143164492868	0	4.054046099880384	0	-2.856742378519829	0	31.76569434100752	28.71143164492868	0	4.054046099880384
0.03	0.06592204486335433	0.02490190719486666	-113.2315518611311	0	0.9399999999999999	0	0.4886961721327059	-0.04250823090691654	-0.1902321680704598	0.7662039651113239	0.01337278193302836	0.3586668195709027	-0.06355985643689539	0	0.5060896254052937	0.04736402692790351	-0.07906660358533103	0.7900943124148314	0.01378974715291952	0.3769306890453308	-0.02455498735214641	0	0.07632091050365167	-0.06944903269800455	-0.05388400976905201	0	-3.388465745017928	0	36.24056070734883	31.9839739396482	0	4.369426475702379	0	-3.388465745017928	0	36.24056070734883	31.9839739396482	0	4.369426475702379
0.04	0.05428805817929454	0.1056036513404457	-113.244929660609	0	0.9399999999999999	0	0.8048830632963055	-0.0005948255867916397	-0.2591786134488421	1.196724263983945	0.02088677864502564	0.5072462007700936	-0.08235643895481345	0	0.8086849763965853	-0.009246852675011887	-0.1845296114619093	1.19524742613657	0.02086100296207087	0.5197450687828031	-0.02433301087337177	0	0.1879383354255533	-0.01988804157100956	-0.02934176081001517	0	-3.761195354219486	0	39.07820383484108	33.92319747061596	0	4.533291368922439	0	-3.761195354219486	0	39.07820383484108	33.92319747061596	0	4.533291368922439
0.05	0.01828703860590216	0.000337569994526837	-113.2403339345342	0	0.9399999999999999	0	0.3848412033084079	-0.005664288233926872	-0.1724479583384416	0.6458835078409736	0.0112727937961556	0.3013318824244394	-0.02376999639891146	0	0.4150040813395236	-0.01026228478102738	-0.1129674939103265	0.6682929710552432	0.01166391271284916	0.3211168465285836	0.04854278489631974	0	0.07715650930031143	-0.04084782380591234	-0.04067342552782535	0	-4.010749954038169	0	40.82202896026813	35.02720934653303	0	4.613545176399099	0	-4.010749954038169	0	40.82202896026813	35.02720934653303	0	4.613545176399099
0.06	0.01921698539295858	0.01098210706691691	-113.2380766488678	0	0.9399999999999999	0	0.401818188154218	0.007440186548553195	-0.1676986645401817	0.6454363344571283	0.01126498914828022	0.2871611393762799	-0.04668866551110183	0	0.4365251243410178	-0.01528363115615459	-0.1110961945923592	0.6705030839212492	0.01170248645920165	0.3010788483255466	0.04575603115391479	0	0.08376394170261869	-0.0252867899324356	-0.02677216068580105	0	-4.365503270712987	0	43.22336745324872	36.49849230954154	0	4.713931970452991	0	-4.365503270712987	0	43.22336745324872	36.49849230954154	0	4.713931970452991
0.07000000000000001	0.02061577175322786	0.01083890980050502	-113.2325729165546	0	0.9399999999999999	0	0.4128205552972609	0.005420138144310567	-0.1721523580479952	0.6510547460353934	0.01136304892905311	0.2916924890472536	-0.03156374672295853	0	0.4469366259141368	-0.01592476514321117	-0.1177053381412802	0.6731823835517209	0.01174924905940085	0.2977850749278357	0.05395429474761744	0	0.09427254750013742	-0.03623827462879175	-0.04209010188336576	0	-4.828177674994143	0	46.07588859747651	38.07433075330846	0	4.802809608410776	0	-4.828177674994143	0	46.07588859747651	38.07433075330846	0	4.802809608410776
0.08	0.04792631916562295	0.08355222904797724	-113.2098774399497	0	0.9399999999999999	0	0.8068436441670738	0.02238031270175984	-0.2724334506951103	1.188945802190343	0.02075101887598669	0.4797711004788424	-0.09439951540312157	0	0.8517130311292294	-0.02242037904360877	-0.1904185955500836	1.226233452848536	0.0214018111503056	0.5121397650407465	0.01889649681232639	0	0.1756289502079018	-0.02541095006178793	-0.06423950248165186	0	-5.128333438111442	0	47.7814049756054	38.92389091309926	0	4.843070131203996	0	-5.128333438111442	0	47.7814049756054	38.92389091309926	0	4.843070131203996
0.09	-0.002425007270607528	-0.005054558684315778	-113.2198143559774	0	0.9399999999999999	0	0.4819849970002382	0.02888369786268015	-0.2178784791418975	0.7955802299832837	0.01388549447698201	0.3700725449022078	-0.02970532161804919	0	0.5122706480503902	-0.04822676363574541	-0.1523304022110357	0.8186106386295019	0.01428745093593829	0.3828966020305676	0.09453263175989306	0	0.08555699993168803	-0.01297749983123406	-0.06574267350645943	0	-5.330242980000628	0	48.89801191170973	39.4522529002582	0	4.865917930501202	0	-5.330242980000628	0	48.89801191170973	39.4522529002582	0	4.865917930501202
